<?xml version="1.0" encoding="utf-8"?>
<!-- Generator: Adobe Illustrator 16.2.1, SVG Export Plug-In . SVG Version: 6.00 Build 0)  -->
<!DOCTYPE svg PUBLIC "-//W3C//DTD SVG 1.1//EN" "http://www.w3.org/Graphics/SVG/1.1/DTD/svg11.dtd">
<svg version="1.1" id="Ebene_1" xmlns="http://www.w3.org/2000/svg" xmlns:xlink="http://www.w3.org/1999/xlink" x="0px" y="0px"
	 width="20px" height="14px" viewBox="0 0 20 14" enable-background="new 0 0 20 14" xml:space="preserve">
<path fill="#B3B3B3" d="M15.4,0H4.6C2.612,0,1,1.612,1,3.6v6.8C1,12.389,2.612,14,4.6,14h10.8c1.988,0,3.6-1.611,3.6-3.6V3.6
	C19,1.612,17.389,0,15.4,0z M5,11V6H3l3.01-3L9,6H7v3h3l1.8,2H5z M14,11l-3-3h2V5h-3L8.2,3H15v2.5V8h2L14,11z"/>
</svg>
