<?xml version="1.0" encoding="utf-8"?>
<!-- Generator: Adobe Illustrator 16.2.1, SVG Export Plug-In . SVG Version: 6.00 Build 0)  -->
<!DOCTYPE svg PUBLIC "-//W3C//DTD SVG 1.1//EN" "http://www.w3.org/Graphics/SVG/1.1/DTD/svg11.dtd">
<svg version="1.1" id="Ebene_1" xmlns="http://www.w3.org/2000/svg" xmlns:xlink="http://www.w3.org/1999/xlink" x="0px" y="0px"
	 width="33.75px" height="34.5px" viewBox="0 0 33.75 34.5" enable-background="new 0 0 33.75 34.5" xml:space="preserve">
<path fill="#4F4F4F" stroke="#FFFFFF" stroke-miterlimit="10" d="M31.8,8.494c-0.396-2.429-2.987-4.764-5.401-5.034
	c-5.967-0.598-11.936-0.598-17.899,0C6.083,3.73,3.49,6.066,3.095,8.494c-0.552,3.728-0.552,7.743,0,11.471
	c0.395,2.428,2.988,4.764,5.402,5.034c0.855,0.086,1.708,0.132,2.563,0.192v5.396c0,0.431,0.259,0.817,0.655,0.981
	c0.131,0.055,0.271,0.08,0.407,0.08c0.276,0,0.548-0.106,0.751-0.312l6.326-6.08c2.4-0.048,4.8-0.163,7.197-0.402
	c2.414-0.271,5.008-2.461,5.401-4.891C32.352,16.237,32.352,12.222,31.8,8.494z"/>
<path fill="#FFFFFF" d="M25.825,9.52c-0.617,0.273-1.279,0.458-1.976,0.541c0.711-0.425,1.256-1.099,1.512-1.901
	c-0.663,0.394-1.399,0.68-2.185,0.834c-0.627-0.668-1.52-1.085-2.509-1.085c-1.896,0-3.438,1.539-3.438,3.438
	c0,0.27,0.03,0.532,0.089,0.783c-2.856-0.143-5.39-1.512-7.085-3.591C9.94,9.045,9.771,9.636,9.771,10.266
	c0,1.192,0.607,2.245,1.529,2.861c-0.563-0.018-1.093-0.172-1.557-0.43c0,0.014,0,0.029,0,0.043c0,1.666,1.185,3.055,2.757,3.37
	c-0.288,0.079-0.592,0.121-0.905,0.121c-0.221,0-0.437-0.021-0.647-0.062c0.438,1.365,1.708,2.358,3.211,2.388
	c-1.177,0.922-2.658,1.471-4.269,1.471c-0.277,0-0.551-0.016-0.82-0.047c1.521,0.977,3.328,1.543,5.27,1.543
	c6.322,0,9.781-5.236,9.781-9.779c0-0.148-0.003-0.296-0.012-0.444C24.781,10.815,25.363,10.209,25.825,9.52z"/>
</svg>
